<svg width="20" height="21" viewBox="0 0 20 21" fill="none" xmlns="http://www.w3.org/2000/svg">
<path d="M11.8441 10.4072L8.13339 10.4036C7.51494 10.403 6.896 10.9002 6.89527 11.647L6.88725 19.8614L13.0718 19.8676L13.0798 11.6531C13.0805 10.9063 12.5862 10.408 11.8441 10.4072Z" stroke="white" stroke-width="1.75641" stroke-miterlimit="10"/>
<path d="M16.42 19.8641H3.67987C2.31927 19.8641 1.20605 18.7439 1.20605 17.3748V8.66251C1.20605 7.91574 1.57713 7.16897 2.19558 6.67112L8.5038 1.69265C9.36963 0.945875 10.6065 0.945875 11.4724 1.69265L17.7806 6.67112C18.399 7.16897 18.7701 7.79128 18.7701 8.66251V17.3748C18.7701 18.7439 17.7806 19.8641 16.42 19.8641Z" stroke="white" stroke-width="1.75641" stroke-miterlimit="10"/>
</svg>
