<svg width="19" height="19" viewBox="0 0 19 19" fill="none" xmlns="http://www.w3.org/2000/svg">
<rect x="0.907779" y="0.907779" width="16.6762" height="16.6762" rx="3.2949" stroke="#34A3F1" stroke-width="1.81556" stroke-linejoin="round"/>
<circle cx="9" cy="7" r="3.25" stroke="#34A3F1" stroke-width="1.5"/>
<mask id="path-3-inside-1_2_283" fill="white">
<path d="M4.75736 17.4492C3.91824 16.8389 3.3468 16.0614 3.11529 15.2149C2.88378 14.3685 3.0026 13.4911 3.45672 12.6937C3.91085 11.8964 4.67988 11.2149 5.66658 10.7354C6.65327 10.2559 7.81331 10 9 10C10.1867 10 11.3467 10.2559 12.3334 10.7354C13.3201 11.2149 14.0892 11.8964 14.5433 12.6937C14.9974 13.4911 15.1162 14.3685 14.8847 15.2149C14.6532 16.0614 14.0818 16.8389 13.2426 17.4492L12.3509 16.8006C13.0136 16.3186 13.4649 15.7045 13.6478 15.036C13.8306 14.3675 13.7368 13.6745 13.3781 13.0447C13.0195 12.415 12.4121 11.8767 11.6328 11.498C10.8535 11.1193 9.93726 10.9172 9 10.9172C8.06274 10.9172 7.14654 11.1193 6.36724 11.498C5.58794 11.8767 4.98055 12.415 4.62188 13.0447C4.2632 13.6745 4.16936 14.3675 4.35221 15.036C4.53506 15.7045 4.98639 16.3186 5.64913 16.8006L4.75736 17.4492Z"/>
</mask>
<path d="M4.75736 17.4492C3.91824 16.8389 3.3468 16.0614 3.11529 15.2149C2.88378 14.3685 3.0026 13.4911 3.45672 12.6937C3.91085 11.8964 4.67988 11.2149 5.66658 10.7354C6.65327 10.2559 7.81331 10 9 10C10.1867 10 11.3467 10.2559 12.3334 10.7354C13.3201 11.2149 14.0892 11.8964 14.5433 12.6937C14.9974 13.4911 15.1162 14.3685 14.8847 15.2149C14.6532 16.0614 14.0818 16.8389 13.2426 17.4492L12.3509 16.8006C13.0136 16.3186 13.4649 15.7045 13.6478 15.036C13.8306 14.3675 13.7368 13.6745 13.3781 13.0447C13.0195 12.415 12.4121 11.8767 11.6328 11.498C10.8535 11.1193 9.93726 10.9172 9 10.9172C8.06274 10.9172 7.14654 11.1193 6.36724 11.498C5.58794 11.8767 4.98055 12.415 4.62188 13.0447C4.2632 13.6745 4.16936 14.3675 4.35221 15.036C4.53506 15.7045 4.98639 16.3186 5.64913 16.8006L4.75736 17.4492Z" stroke="#34A3F1" stroke-width="3.27273" mask="url(#path-3-inside-1_2_283)"/>
</svg>
