<?xml version="1.0" encoding="utf-8"?>
<!-- Generator: Adobe Illustrator 25.2.0, SVG Export Plug-In . SVG Version: 6.00 Build 0)  -->
<svg version="1.1" id="Layer_1" xmlns="http://www.w3.org/2000/svg" xmlns:xlink="http://www.w3.org/1999/xlink" x="0px" y="0px"
	 viewBox="0 0 20 22" style="enable-background:new 0 0 20 22;" xml:space="preserve">
<style type="text/css">
	.st0{fill:none;stroke:#FFFFFF;stroke-width:1.6184;}
	.st1{fill:none;stroke:#FFFFFF;stroke-width:2.05;stroke-linecap:round;}
</style>
<path class="st0" d="M1.6,11.7l0-0.4l0-0.4l0.1-0.4L1.8,10l0.1-0.4L2,9.2l0.1-0.4l0.2-0.4L2.5,8l0.2-0.4l0.2-0.4L3.2,7l0.3-0.3
	l0.3-0.3L4,6l0.3-0.3l0.3-0.3L5,5.2l0.3-0.2l0.4-0.2L6,4.5l0.4-0.2l0.4-0.2L7.2,4l0.4-0.1L8,3.8l0.4-0.1l0.4-0.1l0.4,0l0.4,0l0.4,0
	l0.4,0L11,3.7l0.4,0.1l0.4,0.1L12.2,4l0.4,0.1L13,4.3l0.4,0.2l0.4,0.2l0.4,0.2l0.3,0.2l0.3,0.3l0.3,0.3L15.4,6l0.3,0.3L16,6.6
	L16.3,7l0.2,0.3l0.2,0.4L16.9,8l0.2,0.4l0.2,0.4l0.1,0.4l0.1,0.4l0.1,0.4l0.1,0.4l0.1,0.4l0,0.4l0,0.4l0,0.4l0,0.4L17.7,13l-0.1,0.4
	l-0.1,0.4l-0.1,0.4l-0.1,0.4L17.1,15l-0.2,0.4l-0.2,0.4l-0.2,0.4l-0.2,0.3L16,16.8l-0.3,0.3l-0.3,0.3l-0.3,0.3L14.8,18l-0.3,0.3
	l-0.3,0.2l-0.4,0.2l-0.4,0.2L13,19.1l-0.4,0.2l-0.4,0.1l-0.4,0.1l-0.4,0.1L11,19.7l-0.4,0.1l-0.4,0l-0.4,0l-0.4,0l-0.4,0l-0.4-0.1
	L8,19.6l-0.4-0.1l-0.4-0.1l-0.4-0.1l-0.4-0.2L6,18.9l-0.4-0.2l-0.4-0.2L5,18.3L4.6,18l-0.3-0.3L4,17.4l-0.3-0.3l-0.3-0.3l-0.3-0.3
	l-0.2-0.3l-0.2-0.4l-0.2-0.4L2.3,15l-0.2-0.4L2,14.2l-0.1-0.4l-0.1-0.4L1.7,13l-0.1-0.4l0-0.4L1.6,11.7z"/>
<path class="st1" d="M9.5,1.7v9.6"/>
</svg>
