<?xml version="1.0" encoding="utf-8"?>
<!-- Generator: Adobe Illustrator 25.2.0, SVG Export Plug-In . SVG Version: 6.00 Build 0)  -->
<svg version="1.1" id="Layer_1" xmlns="http://www.w3.org/2000/svg" xmlns:xlink="http://www.w3.org/1999/xlink" x="0px" y="0px"
	 viewBox="0 0 19 19" style="enable-background:new 0 0 19 19;" xml:space="preserve">
<style type="text/css">
	.st0{fill:none;stroke:#FFFFFF;stroke-width:1.8156;stroke-linejoin:round;}
	.st1{fill:none;stroke:#FFFFFF;stroke-width:1.5;}
	.st2{fill:#FFFFFF;filter:url(#Adobe_OpacityMaskFilter);}
	.st3{mask:url(#path-3-inside-1_2_283_1_);fill:none;stroke:#FFFFFF;stroke-width:3.2727;}
</style>
<path class="st0" d="M4.2,0.9h10.1c1.8,0,3.3,1.5,3.3,3.3v10.1c0,1.8-1.5,3.3-3.3,3.3H4.2c-1.8,0-3.3-1.5-3.3-3.3V4.2
	C0.9,2.4,2.4,0.9,4.2,0.9z"/>
<circle class="st1" cx="9" cy="7" r="3.2"/>
<defs>
	<filter id="Adobe_OpacityMaskFilter" filterUnits="userSpaceOnUse" x="1.4" y="8.4" width="15.3" height="11.1">
		<feColorMatrix  type="matrix" values="1 0 0 0 0  0 1 0 0 0  0 0 1 0 0  0 0 0 1 0"/>
	</filter>
</defs>
<mask maskUnits="userSpaceOnUse" x="1.4" y="8.4" width="15.3" height="11.1" id="path-3-inside-1_2_283_1_">
	<path class="st2" d="M4.8,17.4c-0.8-0.6-1.4-1.4-1.6-2.2c-0.2-0.8-0.1-1.7,0.3-2.5c0.5-0.8,1.2-1.5,2.2-2C6.7,10.3,7.8,10,9,10
		c1.2,0,2.3,0.3,3.3,0.7s1.8,1.2,2.2,2c0.5,0.8,0.6,1.7,0.3,2.5c-0.2,0.8-0.8,1.6-1.6,2.2l-0.9-0.6c0.7-0.5,1.1-1.1,1.3-1.8
		c0.2-0.7,0.1-1.4-0.3-2c-0.4-0.6-1-1.2-1.7-1.5S9.9,10.9,9,10.9s-1.9,0.2-2.6,0.6S5,12.4,4.6,13c-0.4,0.6-0.5,1.3-0.3,2
		s0.6,1.3,1.3,1.8L4.8,17.4z"/>
</mask>
<path class="st3" d="M4.8,17.4c-0.8-0.6-1.4-1.4-1.6-2.2c-0.2-0.8-0.1-1.7,0.3-2.5c0.5-0.8,1.2-1.5,2.2-2C6.7,10.3,7.8,10,9,10
	c1.2,0,2.3,0.3,3.3,0.7s1.8,1.2,2.2,2c0.5,0.8,0.6,1.7,0.3,2.5c-0.2,0.8-0.8,1.6-1.6,2.2l-0.9-0.6c0.7-0.5,1.1-1.1,1.3-1.8
	c0.2-0.7,0.1-1.4-0.3-2c-0.4-0.6-1-1.2-1.7-1.5S9.9,10.9,9,10.9s-1.9,0.2-2.6,0.6S5,12.4,4.6,13c-0.4,0.6-0.5,1.3-0.3,2
	s0.6,1.3,1.3,1.8L4.8,17.4z"/>
</svg>
