<?xml version="1.0" encoding="utf-8"?>
<!-- Generator: Adobe Illustrator 25.2.0, SVG Export Plug-In . SVG Version: 6.00 Build 0)  -->
<svg version="1.1" id="Layer_1" xmlns="http://www.w3.org/2000/svg" xmlns:xlink="http://www.w3.org/1999/xlink" x="0px" y="0px"
	 viewBox="0 0 19 19" style="enable-background:new 0 0 19 19;" xml:space="preserve">
<style type="text/css">
	.st0{fill:none;stroke:#FFFFFF;stroke-width:1.8156;stroke-linejoin:round;}
	.st1{fill:none;stroke:#FFFFFF;stroke-width:1.541;stroke-linecap:round;}
</style>
<path class="st0" d="M4.4,0.9h10.1c1.8,0,3.3,1.5,3.3,3.3v10.1c0,1.8-1.5,3.3-3.3,3.3H4.4c-1.8,0-3.3-1.5-3.3-3.3V4.2
	C1.1,2.4,2.6,0.9,4.4,0.9z"/>
<path class="st1" d="M12.9,3.9H5.6c-0.9,0-1.5,0.7-1.5,1.5v2.3c0,0.9,0.7,1.5,1.5,1.5h7.3c0.9,0,1.5-0.7,1.5-1.5V5.4
	C14.5,4.5,13.8,3.9,12.9,3.9z"/>
<path class="st1" d="M4.1,11.6h10.4"/>
<path class="st1" d="M4.1,13.9h10.4"/>
</svg>
