<?xml version="1.0" encoding="utf-8"?>
<!-- Generator: Adobe Illustrator 25.2.0, SVG Export Plug-In . SVG Version: 6.00 Build 0)  -->
<svg version="1.1" id="Layer_1" xmlns="http://www.w3.org/2000/svg" xmlns:xlink="http://www.w3.org/1999/xlink" x="0px" y="0px"
	 viewBox="0 0 18 18" style="enable-background:new 0 0 18 18;" xml:space="preserve">
<style type="text/css">
	.st0{fill:#34A3F1;stroke:#FFFFFF;stroke-miterlimit:10;}
</style>
<path class="st0" d="M17.1,7.1l-1.3-0.2c-0.1-0.4-0.3-0.8-0.5-1.2l0.7-1c0.3-0.4,0.3-1-0.1-1.4l-1.1-1.1c-0.2-0.2-0.5-0.3-0.8-0.3
	c-0.2,0-0.5,0.1-0.6,0.2l-1,0.7c-0.4-0.2-0.8-0.4-1.3-0.5l-0.2-1.2C10.8,0.4,10.3,0,9.8,0H8.2c-0.5,0-1,0.4-1.1,0.9L6.9,2.2
	C6.4,2.3,6,2.5,5.6,2.7L4.6,2C4.4,1.8,4.2,1.8,4,1.8c-0.3,0-0.6,0.1-0.8,0.3L2,3.2c-0.4,0.4-0.4,1-0.1,1.4l0.8,1.1
	C2.5,6.1,2.3,6.5,2.2,6.9L0.9,7.1C0.4,7.2,0,7.7,0,8.2v1.6c0,0.5,0.4,1,0.9,1.1l1.3,0.2c0.1,0.4,0.3,0.8,0.5,1.2l-0.7,1
	c-0.3,0.4-0.3,1,0.1,1.4L3.2,16c0.2,0.2,0.5,0.3,0.8,0.3c0.2,0,0.5-0.1,0.6-0.2l1.1-0.8c0.4,0.2,0.8,0.4,1.2,0.5l0.2,1.3
	C7.2,17.6,7.7,18,8.2,18h1.6c0.5,0,1-0.4,1.1-0.9l0.2-1.3c0.4-0.1,0.8-0.3,1.2-0.5l1,0.7c0.2,0.1,0.4,0.2,0.6,0.2
	c0.3,0,0.6-0.1,0.8-0.3l1.1-1.1c0.4-0.4,0.4-1,0.1-1.4l-0.7-1c0.2-0.4,0.4-0.8,0.5-1.2l1.3-0.2c0.5-0.1,0.9-0.6,0.9-1.1V8.2
	C18,7.7,17.6,7.2,17.1,7.1z M17,9.8C17,9.8,17,9.9,17,9.8l-1.7,0.4c-0.2,0-0.4,0.2-0.4,0.4c-0.1,0.6-0.4,1.1-0.7,1.6
	c-0.1,0.2-0.1,0.4,0,0.6l0.9,1.3c0,0,0,0.1,0,0.1l-1.1,1.1c0,0-0.1,0-0.1,0c0,0,0,0-0.1,0l-1.3-0.9c-0.2-0.1-0.4-0.1-0.6,0
	c-0.5,0.3-1,0.5-1.6,0.7c-0.2,0-0.3,0.2-0.4,0.4l-0.3,1.6c0,0,0,0.1-0.1,0.1H8.2c0,0-0.1,0-0.1-0.1l-0.3-1.6c0-0.2-0.2-0.4-0.4-0.4
	c-0.5-0.1-1.1-0.4-1.5-0.6c-0.1,0-0.2-0.1-0.3-0.1c-0.1,0-0.2,0-0.3,0.1l-1.3,0.9c0,0,0,0-0.1,0c0,0,0,0-0.1,0l-1.1-1.1
	c0,0,0-0.1,0-0.1l0.9-1.3c0.1-0.2,0.1-0.4,0-0.6c-0.3-0.5-0.5-1-0.7-1.6c-0.1-0.2-0.2-0.3-0.4-0.4L1.1,9.9c0,0-0.1,0-0.1-0.1V8.2
	c0,0,0-0.1,0.1-0.1l1.6-0.3c0.2,0,0.4-0.2,0.4-0.4C3.2,7,3.4,6.4,3.7,5.9c0.1-0.2,0.1-0.4,0-0.5L2.8,4.1c0,0,0-0.1,0-0.1l1.1-1.1
	c0,0,0.1,0,0.1,0c0,0,0,0,0.1,0l1.3,0.9c0.2,0.1,0.4,0.1,0.6,0c0.5-0.3,1-0.5,1.6-0.7C7.6,3,7.8,2.9,7.8,2.7l0.3-1.6
	c0,0,0-0.1,0.1-0.1h1.6c0,0,0.1,0,0.1,0.1l0.3,1.6c0,0.2,0.2,0.4,0.4,0.4c0.6,0.1,1.1,0.4,1.6,0.7c0.2,0.1,0.4,0.1,0.6,0L14,2.8
	c0,0,0,0,0.1,0c0,0,0,0,0.1,0l1.1,1.1c0,0,0,0.1,0,0.1l-0.9,1.3c-0.1,0.2-0.1,0.4,0,0.6c0.3,0.5,0.5,1,0.7,1.6
	c0,0.2,0.2,0.3,0.4,0.4l1.6,0.3c0,0,0.1,0,0.1,0.1L17,9.8L17,9.8z"/>
<path class="st0" d="M9,5.1C6.9,5.1,5.1,6.9,5.1,9c0,2.1,1.7,3.9,3.9,3.9c2.1,0,3.9-1.7,3.9-3.9C12.9,6.9,11.1,5.1,9,5.1z M9,11.9
	c-1.6,0-2.9-1.3-2.9-2.9c0-1.6,1.3-2.9,2.9-2.9c1.6,0,2.9,1.3,2.9,2.9C11.9,10.6,10.6,11.9,9,11.9z"/>
</svg>
