<svg width="20" height="22" viewBox="0 0 20 22" fill="none" xmlns="http://www.w3.org/2000/svg">
<path d="M1.61792 11.7109L1.62901 11.2874L1.66225 10.865L1.71755 10.445L1.79475 10.0284L1.89365 9.61648L2.01398 9.21028L2.15539 8.81092L2.31752 8.41952L2.49991 8.03714L2.70206 7.66482L2.92341 7.3036L3.16337 6.95445L3.42128 6.61835L3.69642 6.2962L3.98804 5.98889L4.29535 5.69727L4.6175 5.42213L4.9536 5.16422L5.30275 4.92426L5.66397 4.70291L6.03629 4.50076L6.41867 4.31837L6.81007 4.15624L7.20943 4.01482L7.61563 3.8945L8.02758 3.7956L8.44414 3.71839L8.86417 3.6631L9.28652 3.62986L9.71002 3.61877L10.1335 3.62986L10.5559 3.6631L10.9759 3.71839L11.3925 3.7956L11.8044 3.8945L12.2106 4.01482L12.61 4.15624L13.0014 4.31837L13.3838 4.50075L13.7561 4.70291L14.1173 4.92426L14.4664 5.16422L14.8026 5.42213L15.1247 5.69727L15.432 5.98889L15.7236 6.2962L15.9988 6.61835L16.2567 6.95445L16.4966 7.3036L16.718 7.66482L16.9201 8.03713L17.1025 8.41952L17.2647 8.81092L17.4061 9.21027L17.5264 9.61648L17.6253 10.0284L17.7025 10.445L17.7578 10.865L17.791 11.2874L17.8021 11.7109L17.791 12.1344L17.7578 12.5567L17.7025 12.9768L17.6253 13.3933L17.5264 13.8053L17.4061 14.2115L17.2647 14.6108L17.1025 15.0022L16.9201 15.3846L16.718 15.7569L16.4966 16.1181L16.2567 16.4673L15.9988 16.8034L15.7236 17.1255L15.432 17.4329L15.1247 17.7245L14.8026 17.9996L14.4664 18.2575L14.1173 18.4975L13.7561 18.7188L13.3838 18.921L13.0014 19.1034L12.61 19.2655L12.2106 19.4069L11.8044 19.5272L11.3925 19.6261L10.9759 19.7034L10.5559 19.7586L10.1335 19.7919L9.71002 19.803L9.28652 19.7919L8.86417 19.7586L8.44414 19.7034L8.02758 19.6261L7.61563 19.5272L7.20943 19.4069L6.81007 19.2655L6.41867 19.1034L6.03629 18.921L5.66397 18.7188L5.30275 18.4975L4.9536 18.2575L4.6175 17.9996L4.29535 17.7245L3.98804 17.4329L3.69642 17.1255L3.42128 16.8034L3.16337 16.4673L2.92341 16.1181L2.70206 15.7569L2.49991 15.3846L2.31752 15.0022L2.15539 14.6108L2.01398 14.2115L1.89365 13.8053L1.79475 13.3933L1.71755 12.9768L1.66225 12.5567L1.62901 12.1344L1.61792 11.7109Z" stroke="#34A3F1" stroke-width="1.61842"/>
<path d="M9.547 1.69458L9.547 11.2612" stroke="#34A3F1" stroke-width="2.05" stroke-linecap="round"/>
</svg>
