<svg width="8" height="7" viewBox="0 0 8 7" fill="none" xmlns="http://www.w3.org/2000/svg">
<path d="M7.27913 2.20201L5.42804 2.02697C5.31135 2.01636 5.21052 1.94211 5.16284 1.83072L4.49982 0.223564C4.39374 -0.0416436 4.01709 -0.0416436 3.91101 0.223564L3.25329 1.83072C3.21086 1.94211 3.10478 2.01636 2.98809 2.02697L1.13694 2.20201C0.861125 2.22853 0.749738 2.5733 0.956599 2.75894L2.35159 3.9842C2.44176 4.06376 2.47889 4.18045 2.45237 4.29714L2.03334 6.01563C1.96969 6.2862 2.26142 6.50892 2.50541 6.36576L4.04891 5.4587C4.14969 5.40035 4.27169 5.40035 4.37247 5.4587L5.91602 6.36576C6.16001 6.50892 6.45174 6.2915 6.38804 6.01563L5.97432 4.29714C5.9478 4.18045 5.98492 4.06376 6.0751 3.9842L7.47008 2.75894C7.67164 2.5733 7.55495 2.22853 7.27913 2.20201Z" fill="#EBECED"/>
</svg>
