<svg width="8" height="7" viewBox="0 0 8 7" fill="none" xmlns="http://www.w3.org/2000/svg">
<path d="M7.1971 2.20201L5.34601 2.02697C5.22932 2.01636 5.12849 1.94211 5.0808 1.83072L4.41779 0.223564C4.3117 -0.0416436 3.93506 -0.0416436 3.82897 0.223564L3.17126 1.83072C3.12883 1.94211 3.02274 2.01636 2.90605 2.02697L1.05491 2.20201C0.779093 2.22853 0.667706 2.5733 0.874568 2.75894L2.26956 3.9842C2.35973 4.06376 2.39686 4.18045 2.37034 4.29714L1.95131 6.01563C1.88766 6.2862 2.17939 6.50892 2.42338 6.36576L3.96688 5.4587C4.06766 5.40035 4.18966 5.40035 4.29043 5.4587L5.83399 6.36576C6.07798 6.50892 6.36971 6.2915 6.30601 6.01563L5.89228 4.29714C5.86576 4.18045 5.90289 4.06376 5.99306 3.9842L7.38805 2.75894C7.58961 2.5733 7.47292 2.22853 7.1971 2.20201Z" fill="#FFC22B"/>
</svg>
