<svg width="11" height="8" viewBox="0 0 11 8" fill="none" xmlns="http://www.w3.org/2000/svg">
<path d="M9.83445 0.630296C9.77259 0.567929 9.699 0.518427 9.61791 0.484646C9.53683 0.450864 9.44986 0.433472 9.36202 0.433472C9.27417 0.433472 9.1872 0.450864 9.10612 0.484646C9.02503 0.518427 8.95144 0.567929 8.88958 0.630296L3.93234 5.59419L1.84963 3.50483C1.7854 3.44279 1.70959 3.39401 1.62651 3.36127C1.54343 3.32853 1.45471 3.31247 1.36543 3.31402C1.27615 3.31556 1.18804 3.33468 1.10614 3.37027C1.02425 3.40587 0.950164 3.45724 0.888123 3.52147C0.826082 3.58569 0.777299 3.66151 0.744559 3.74459C0.711818 3.82767 0.695762 3.91638 0.697306 4.00567C0.698851 4.09495 0.717967 4.18306 0.753561 4.26495C0.789156 4.34685 0.840533 4.42093 0.904758 4.48297L3.4599 7.03812C3.52176 7.10048 3.59535 7.14999 3.67644 7.18377C3.75752 7.21755 3.8445 7.23494 3.93234 7.23494C4.02018 7.23494 4.10715 7.21755 4.18824 7.18377C4.26932 7.14999 4.34291 7.10048 4.40477 7.03812L9.83445 1.60844C9.90199 1.54613 9.9559 1.4705 9.99276 1.38633C10.0296 1.30216 10.0487 1.21126 10.0487 1.11937C10.0487 1.02747 10.0296 0.936576 9.99276 0.852403C9.9559 0.76823 9.90199 0.692606 9.83445 0.630296Z" fill="#FFCC2E"/>
</svg>
