<svg width="11" height="11" viewBox="0 0 11 11" fill="none" xmlns="http://www.w3.org/2000/svg">
<path d="M10.8343 9.75167L8.98286 7.91516C9.70155 7.01907 10.0496 5.88167 9.95542 4.73685C9.86125 3.59203 9.33204 2.52679 8.47659 1.76018C7.62114 0.993567 6.50448 0.583848 5.35622 0.615269C4.20796 0.646689 3.11538 1.11686 2.30313 1.92911C1.49088 2.74135 1.02071 3.83394 0.989292 4.98219C0.957872 6.13045 1.36759 7.24711 2.1342 8.10256C2.90082 8.95801 3.96605 9.48723 5.11087 9.5814C6.2557 9.67556 7.39309 9.32752 8.28918 8.60884L10.1257 10.4453C10.1721 10.4921 10.2273 10.5293 10.2881 10.5546C10.3489 10.5799 10.4141 10.593 10.48 10.593C10.5459 10.593 10.6111 10.5799 10.6719 10.5546C10.7328 10.5293 10.788 10.4921 10.8343 10.4453C10.9243 10.3523 10.9746 10.2279 10.9746 10.0985C10.9746 9.96909 10.9243 9.84472 10.8343 9.75167ZM5.4895 8.60884C4.79858 8.60884 4.12318 8.40396 3.5487 8.0201C2.97422 7.63625 2.52646 7.09066 2.26206 6.45233C1.99766 5.814 1.92848 5.1116 2.06327 4.43396C2.19806 3.75631 2.53077 3.13386 3.01932 2.6453C3.50788 2.15675 4.13034 1.82404 4.80798 1.68924C5.48563 1.55445 6.18803 1.62363 6.82635 1.88804C7.46468 2.15244 8.01027 2.60019 8.39413 3.17467C8.77798 3.74915 8.98286 4.42456 8.98286 5.11548C8.98286 6.04198 8.61481 6.93053 7.95968 7.58566C7.30455 8.24079 6.416 8.60884 5.4895 8.60884Z" fill="#AAAAA8"/>
</svg>
