<svg width="17" height="17" viewBox="0 0 17 17" fill="none" xmlns="http://www.w3.org/2000/svg">
<g opacity="0.4">
<path d="M0.914351 13.9933L4.54372 10.3639C4.99944 11.04 5.5825 11.6234 6.25895 12.0791L2.62958 15.7085C2.15598 16.1821 1.38796 16.1821 0.914351 15.7085C0.441351 15.2364 0.441351 14.4663 0.914351 13.9933Z" fill="#AAAAA8"/>
<path d="M9.80367 0.540039C13.2596 0.540039 16.0831 3.36379 16.0831 6.84671C16.0831 10.3296 13.2596 13.1534 9.80367 13.1534C6.34774 13.1534 3.497 10.3296 3.497 6.84671C3.497 3.36379 6.29255 0.540039 9.80367 0.540039ZM9.80367 10.7277C11.9437 10.7277 13.6847 8.98674 13.6847 6.84671C13.6847 4.70669 11.9437 2.96568 9.80367 2.96568C7.66365 2.96568 5.92264 4.70669 5.92264 6.84671C5.92264 8.98734 7.63575 10.7277 9.80367 10.7277Z" fill="#AAAAA8"/>
</g>
</svg>
