<svg width="12" height="12" viewBox="0 0 12 12" fill="none" xmlns="http://www.w3.org/2000/svg">
<path d="M11.3565 3.98208L8.11818 3.67587C7.91405 3.65731 7.73765 3.5274 7.65423 3.33254L6.49435 0.520998C6.30877 0.0570468 5.64987 0.0570468 5.46429 0.520998L4.31369 3.33254C4.23946 3.5274 4.05388 3.65731 3.84974 3.67587L0.611358 3.98208C0.128848 4.02847 -0.0660113 4.63161 0.295871 4.95637L2.73626 7.09983C2.894 7.23901 2.95895 7.44315 2.91256 7.64729L2.17951 10.6536C2.06817 11.1269 2.57851 11.5166 3.00535 11.2661L5.70554 9.67931C5.88185 9.57724 6.09526 9.57724 6.27156 9.67931L8.97186 11.2661C9.39869 11.5166 9.90904 11.1362 9.7976 10.6536L9.07383 7.64729C9.02744 7.44315 9.09239 7.23901 9.25013 7.09983L11.6905 4.95637C12.0431 4.63161 11.839 4.02847 11.3565 3.98208Z" fill="#FFC22B"/>
</svg>
