<svg width="13" height="12" viewBox="0 0 13 12" fill="none" xmlns="http://www.w3.org/2000/svg">
<path d="M11.9131 3.98171L8.67482 3.6755C8.47069 3.65694 8.29429 3.52704 8.21087 3.33218L7.05099 0.520632C6.86541 0.0566806 6.20651 0.0566806 6.02093 0.520632L4.87033 3.33218C4.7961 3.52704 4.61052 3.65694 4.40638 3.6755L1.168 3.98171C0.685489 4.02811 0.490629 4.63124 0.852511 4.95601L3.2929 7.09946C3.45064 7.23865 3.51559 7.44279 3.4692 7.64693L2.73615 10.6532C2.62481 11.1266 3.13515 11.5162 3.56199 11.2657L6.26219 9.67894C6.43849 9.57687 6.6519 9.57687 6.82821 9.67894L9.5285 11.2657C9.95533 11.5162 10.4657 11.1358 10.3542 10.6532L9.63047 7.64693C9.58408 7.44279 9.64903 7.23865 9.80677 7.09946L12.2472 4.95601C12.5998 4.63124 12.3956 4.02811 11.9131 3.98171Z" fill="#EBECED"/>
</svg>
