<svg width="11" height="11" viewBox="0 0 11 11" fill="none" xmlns="http://www.w3.org/2000/svg">
<path d="M9.85208 3.89862L6.88234 3.46702L5.55478 0.775646C5.51852 0.701958 5.45887 0.642306 5.38518 0.606047C5.20038 0.514814 4.9758 0.590841 4.8834 0.775646L3.55585 3.46702L0.586102 3.89862C0.504226 3.91031 0.429368 3.94891 0.372055 4.00739C0.302767 4.07861 0.264586 4.17442 0.265902 4.27377C0.267218 4.37313 0.307923 4.46789 0.379073 4.53725L2.52772 6.63209L2.02009 9.59014C2.00819 9.65895 2.01581 9.72972 2.04207 9.79443C2.06834 9.85913 2.11222 9.91518 2.16872 9.95621C2.22522 9.99725 2.29209 10.0216 2.36175 10.0266C2.43141 10.0316 2.50106 10.0169 2.56281 9.98432L5.21909 8.58775L7.87537 9.98432C7.94789 10.0229 8.0321 10.0358 8.11281 10.0217C8.31633 9.98665 8.45318 9.79366 8.41809 9.59014L7.91046 6.63209L10.0591 4.53725C10.1176 4.47993 10.1562 4.40508 10.1679 4.3232C10.1995 4.11851 10.0568 3.92903 9.85208 3.89862Z" fill="#EBECED"/>
</svg>
